<svg xmlns="http://www.w3.org/2000/svg" viewBox="0 0 96 86.25"><defs><style>.cls-1{fill:#71549e;}</style></defs><title>chat</title><g id="레이어_2" data-name="레이어 2"><g id="Capa_1" data-name="Capa 1"><path class="cls-1" d="M48,18.75a1.88,1.88,0,1,0,1.88,1.88A1.88,1.88,0,0,0,48,18.75Z"/><path class="cls-1" d="M16.88,52.5A1.88,1.88,0,1,0,15,50.63,1.87,1.87,0,0,0,16.88,52.5Z"/><path class="cls-1" d="M63,0C46.12,0,32.27,11.64,31.19,26.3,15.12,27.1,0,38.7,0,54.38A26.2,26.2,0,0,0,7.31,72.31a11.39,11.39,0,0,1-3,10.74,1.87,1.87,0,0,0-.41,2,1.89,1.89,0,0,0,1.74,1.16A20.68,20.68,0,0,0,20,80.46,42.84,42.84,0,0,0,33,82.5c16.88,0,30.73-11.64,31.81-26.29a42.54,42.54,0,0,0,11.24-2A20.68,20.68,0,0,0,90.38,60a1.87,1.87,0,0,0,1.32-3.2,11.39,11.39,0,0,1-3-10.74A26.2,26.2,0,0,0,96,28.13C96,11.83,79.72,0,63,0ZM33,78.75a38,38,0,0,1-12.85-2.21,1.87,1.87,0,0,0-2.07.47,17,17,0,0,1-8.42,5,15.18,15.18,0,0,0,1.15-11.16,2.07,2.07,0,0,0-.46-.8,22.5,22.5,0,0,1-6.6-15.67C3.75,41.16,17.14,30,33,30c15,0,28.13,10.41,28.13,24.38C61.13,67.82,48.51,78.75,33,78.75ZM85.65,43.8a2.07,2.07,0,0,0-.46.8,15.18,15.18,0,0,0,1.15,11.16,17,17,0,0,1-8.42-5,1.87,1.87,0,0,0-2.07-.47,37,37,0,0,1-11,2.16,26.87,26.87,0,0,0-10.13-18.7H79.13a1.88,1.88,0,0,0,0-3.75H48.91a35,35,0,0,0-14-3.7C36,13.71,48.2,3.75,63,3.75c15.86,0,29.25,11.16,29.25,24.38A22.5,22.5,0,0,1,85.65,43.8Z"/><path class="cls-1" d="M48,48.75H24.38a1.88,1.88,0,1,0,0,3.75H48a1.88,1.88,0,1,0,0-3.75Z"/><path class="cls-1" d="M48,60H16.88a1.88,1.88,0,1,0,0,3.75H48A1.88,1.88,0,1,0,48,60Z"/><path class="cls-1" d="M79.13,18.75H55.5a1.88,1.88,0,0,0,0,3.75H79.13a1.88,1.88,0,0,0,0-3.75Z"/></g></g></svg>