<?xml version="1.0" encoding="utf-8"?>
<!-- Generator: Adobe Illustrator 22.0.1, SVG Export Plug-In . SVG Version: 6.00 Build 0)  -->
<svg version="1.1" id="Capa_1" xmlns="http://www.w3.org/2000/svg" xmlns:xlink="http://www.w3.org/1999/xlink" x="0px" y="0px"
	 viewBox="0 0 110 254.7" style="enable-background:new 0 0 110 254.7;" xml:space="preserve">
<style type="text/css">
	.st0{fill:#71549E;}
</style>
<g>
	<path class="st0" d="M67.3,1H18.7v90h70.5V22.9L67.3,1z M68.2,6.1L84,22H68.2V6.1z M21.7,88V4h43.5v21h21v63H21.7z"/>
	<path class="st0" d="M72.7,32.5h-24c-0.8,0-1.5,0.7-1.5,1.5s0.7,1.5,1.5,1.5h24c0.8,0,1.5-0.7,1.5-1.5S73.5,32.5,72.7,32.5z"/>
	<path class="st0" d="M43.2,28.3l-6.5,5.2l-2.1-2.1c-0.6-0.6-1.5-0.6-2.1,0s-0.6,1.5,0,2.1l3,3c0.3,0.3,0.7,0.4,1.1,0.4
		c0.3,0,0.7-0.1,0.9-0.3l7.5-6c0.6-0.5,0.8-1.5,0.2-2.1C44.8,27.9,43.9,27.8,43.2,28.3z"/>
	<path class="st0" d="M72.7,49h-24c-0.8,0-1.5,0.7-1.5,1.5s0.7,1.5,1.5,1.5h24c0.8,0,1.5-0.7,1.5-1.5S73.5,49,72.7,49z"/>
	<path class="st0" d="M43.2,44.8L36.8,50l-2.1-2.1c-0.6-0.6-1.5-0.6-2.1,0s-0.6,1.5,0,2.1l3,3c0.3,0.3,0.7,0.4,1.1,0.4
		c0.3,0,0.7-0.1,0.9-0.3l7.5-6c0.6-0.5,0.8-1.5,0.2-2.1C44.8,44.4,43.9,44.3,43.2,44.8z"/>
	<path class="st0" d="M72.7,65.5h-24c-0.8,0-1.5,0.7-1.5,1.5s0.7,1.5,1.5,1.5h24c0.8,0,1.5-0.7,1.5-1.5S73.5,65.5,72.7,65.5z"/>
	<path class="st0" d="M43.2,61.3l-6.5,5.2l-2.1-2.1c-0.6-0.6-1.5-0.6-2.1,0C32,65,32,66,32.6,66.6l3,3c0.3,0.3,0.7,0.4,1.1,0.4
		c0.3,0,0.7-0.1,0.9-0.3l7.5-6c0.6-0.5,0.8-1.5,0.2-2.1C44.8,60.9,43.9,60.8,43.2,61.3z"/>
</g>
<g>
	<path class="st0" d="M53.9,179.6c-1,0-1.9,0.8-1.9,1.9s0.8,1.9,1.9,1.9s1.9-0.8,1.9-1.9S55,179.6,53.9,179.6z"/>
	<path class="st0" d="M22.8,213.4c1,0,1.9-0.8,1.9-1.9s-0.8-1.9-1.9-1.9s-1.9,0.8-1.9,1.9S21.8,213.4,22.8,213.4z"/>
	<path class="st0" d="M68.9,160.9c-16.9,0-30.7,11.6-31.8,26.3C21,188,5.9,199.6,5.9,215.2c0,6.6,2.6,12.9,7.3,17.9
		c0.9,3.8-0.2,7.9-3,10.7c-0.5,0.5-0.7,1.3-0.4,2c0.3,0.7,1,1.2,1.7,1.2c5.3,0,10.5-2.1,14.3-5.8c3.7,1.3,8.6,2,13,2
		c16.9,0,30.7-11.6,31.8-26.3c3.9-0.2,8-0.9,11.2-2c3.8,3.7,9,5.8,14.3,5.8c0.8,0,1.4-0.5,1.7-1.2c0.3-0.7,0.1-1.5-0.4-2
		c-2.8-2.8-3.9-6.9-3-10.7c4.7-5,7.3-11.4,7.3-17.9C101.9,172.7,85.6,160.9,68.9,160.9z M38.9,239.6c-4.4,0-9.5-0.9-12.8-2.2
		c-0.7-0.3-1.6-0.1-2.1,0.5c-2.3,2.5-5.2,4.2-8.4,5c1.8-3.4,2.2-7.4,1.1-11.2c-0.1-0.3-0.2-0.6-0.5-0.8c-4.3-4.4-6.6-9.9-6.6-15.7
		c0-13.2,13.4-24.4,29.3-24.4c15,0,28.1,10.4,28.1,24.4C67,228.7,54.4,239.6,38.9,239.6z M91.6,204.7c-0.2,0.2-0.4,0.5-0.5,0.8
		c-1.1,3.8-0.6,7.8,1.1,11.2c-3.2-0.8-6.2-2.5-8.4-5c-0.5-0.6-1.4-0.8-2.1-0.5c-2.9,1.2-7.1,2-11,2.2c-0.5-7.1-4.1-13.8-10.1-18.7
		H85c1,0,1.9-0.8,1.9-1.9s-0.8-1.9-1.9-1.9H54.8c-4.3-2.2-9-3.4-14-3.7c1.1-12.6,13.2-22.6,28-22.6c15.9,0,29.3,11.2,29.3,24.4
		C98.2,194.7,95.8,200.3,91.6,204.7z"/>
	<path class="st0" d="M53.9,209.6H30.3c-1,0-1.9,0.8-1.9,1.9s0.8,1.9,1.9,1.9h23.6c1,0,1.9-0.8,1.9-1.9S55,209.6,53.9,209.6z"/>
	<path class="st0" d="M53.9,220.9H22.8c-1,0-1.9,0.8-1.9,1.9s0.8,1.9,1.9,1.9h31.1c1,0,1.9-0.8,1.9-1.9S55,220.9,53.9,220.9z"/>
	<path class="st0" d="M85,179.6H61.4c-1,0-1.9,0.8-1.9,1.9s0.8,1.9,1.9,1.9H85c1,0,1.9-0.8,1.9-1.9S86.1,179.6,85,179.6z"/>
</g>
</svg>
