<svg xmlns="http://www.w3.org/2000/svg" viewBox="0 0 70.5 90"><defs><style>.cls-1{fill:#71549e;}</style></defs><title>list</title><g id="레이어_2" data-name="레이어 2"><g id="Capa_1" data-name="Capa 1"><path class="cls-1" d="M48.62,0H0V90H70.5V21.88Zm.88,5.12L65.38,21H49.5ZM3,87V3H46.5V24h21V87Z"/><path class="cls-1" d="M54,31.5H30a1.5,1.5,0,0,0,0,3H54a1.5,1.5,0,0,0,0-3Z"/><path class="cls-1" d="M24.56,27.33l-6.45,5.16-2.05-2.05a1.5,1.5,0,1,0-2.12,2.12l3,3A1.49,1.49,0,0,0,18,36a1.52,1.52,0,0,0,.94-.33l7.5-6a1.5,1.5,0,1,0-1.88-2.34Z"/><path class="cls-1" d="M54,48H30a1.5,1.5,0,0,0,0,3H54a1.5,1.5,0,0,0,0-3Z"/><path class="cls-1" d="M24.56,43.83,18.11,49l-2.05-2.05a1.5,1.5,0,0,0-2.12,2.12l3,3A1.49,1.49,0,0,0,18,52.5a1.52,1.52,0,0,0,.94-.33l7.5-6a1.5,1.5,0,0,0-1.88-2.34Z"/><path class="cls-1" d="M54,64.5H30a1.5,1.5,0,0,0,0,3H54a1.5,1.5,0,0,0,0-3Z"/><path class="cls-1" d="M24.56,60.33l-6.45,5.16-2.05-2a1.5,1.5,0,0,0-2.12,2.12l3,3A1.49,1.49,0,0,0,18,69a1.52,1.52,0,0,0,.94-.33l7.5-6a1.5,1.5,0,0,0-1.88-2.34Z"/></g></g></svg>