<?xml version="1.0" encoding="utf-8"?>
<!-- Generator: Adobe Illustrator 22.0.1, SVG Export Plug-In . SVG Version: 6.00 Build 0)  -->
<svg version="1.1" id="레이어_1" xmlns="http://www.w3.org/2000/svg" xmlns:xlink="http://www.w3.org/1999/xlink" x="0px"
	 y="0px" viewBox="0 0 230.9 230.9" style="enable-background:new 0 0 230.9 230.9;" xml:space="preserve">
<path d="M29.7,213.9c-5.7,0-10.4-4.6-10.4-10.4L17,57c0-5.7,4.7-10.4,10.4-10.4H121c1.3,0,2.4,1.1,2.4,2.4s-1.1,2.4-2.4,2.4H27.4
	c-3.1,0-5.6,2.5-5.6,5.5l2.2,146.5c0,3,2.5,5.6,5.6,5.6h143.1c3.1,0,5.6-2.5,5.6-5.5l1.1-93.6c0-1.3,1-2.4,2.2-2.4l0.2,0
	c0.6,0,1.2,0.3,1.7,0.7c0.5,0.5,0.7,1.1,0.7,1.7l-1.1,93.6c0,5.7-4.7,10.3-10.4,10.3H29.7z M100.7,132.6c-0.6,0-1.3-0.3-1.7-0.7
	c-0.5-0.5-0.7-1.1-0.7-1.7c0-0.6,0.3-1.3,0.7-1.7L205.6,21.9H158c-1.3,0-2.4-1.1-2.4-2.4s1.1-2.4,2.4-2.4h53.4c0.1,0,0.3,0,0.4,0
	c0.1,0,0.5,0.2,0.5,0.2l0.2,0.1l0.2,0.1c0.2,0.1,0.4,0.3,0.6,0.6c0.1,0.1,0.2,0.4,0.2,0.4l0.1,0.1l0,0c0,0,0.1,0.4,0.1,0.4
	c0,0,0,0,0-0.1c0,0.2,0.1,0.4,0.1,0.5v53.4c0,1.3-1.1,2.4-2.4,2.4s-2.4-1.1-2.4-2.4V25.3L102.4,131.9
	C101.9,132.4,101.3,132.6,100.7,132.6z"/>
</svg>
