<?xml version="1.0" encoding="utf-8"?>
<!-- Generator: Adobe Illustrator 22.0.1, SVG Export Plug-In . SVG Version: 6.00 Build 0)  -->
<svg version="1.1" id="레이어_1" xmlns="http://www.w3.org/2000/svg" xmlns:xlink="http://www.w3.org/1999/xlink" x="0px"
	 y="0px" viewBox="0 0 105 105" style="enable-background:new 0 0 105 105;" xml:space="preserve">
<style type="text/css">
	.st0{fill:#FFFFFF;stroke:#BABABA;stroke-miterlimit:10;}
	.st1{fill:#BABABA;}
	.st2{fill:#BABABA;stroke:#FFFFFF;stroke-width:1.6144;stroke-miterlimit:10;}
</style>
<g>
	<circle class="st0" cx="52.1" cy="52.5" r="50.7"/>
	<ellipse class="st1" cx="52.1" cy="44.6" rx="12.5" ry="15.7"/>
	<path class="st2" d="M77.4,93.1c0-14-5.7-35.3-25.3-35.3S26.8,79.1,26.8,93.1c0,0,11.1,7,25.3,7S77.4,93.1,77.4,93.1z"/>
</g>
<circle class="st0" cx="480" cy="136.7" r="50.7"/>
<ellipse class="st1" cx="480" cy="128.8" rx="12.5" ry="15.7"/>
<path class="st2" d="M505.3,177.3c0-14-5.7-35.3-25.3-35.3s-25.3,21.3-25.3,35.3c0,0,11.1,7,25.3,7S505.3,177.3,505.3,177.3z"/>
</svg>
